HIERARCHY
ROOT alerted
{
	OFFSET 0.000000 0.000000 0.000000
	CHANNELS 6 Xposition Yposition Zposition Xrotation Yrotation Zrotation
	JOINT Spine_01
	{
		OFFSET 0.000000 138.184219 -44.816219
		CHANNELS 3 Xrotation Yrotation Zrotation
		JOINT Spine_02
		{
			OFFSET -0.000004 -4.180267 28.050579
			CHANNELS 3 Xrotation Yrotation Zrotation
			JOINT Spine_03
			{
				OFFSET -0.000004 -2.923813 35.501564
				CHANNELS 3 Xrotation Yrotation Zrotation
				JOINT Spine_04
				{
					OFFSET -0.000006 1.220093 39.223053
					CHANNELS 3 Xrotation Yrotation Zrotation
					JOINT Neck_Base
					{
						OFFSET -0.000056 3.589035 29.437286
						CHANNELS 3 Xrotation Yrotation Zrotation
						JOINT Neck_01
						{
							OFFSET -0.075121 19.862778 2.919655
							CHANNELS 3 Xrotation Yrotation Zrotation
							JOINT Neck_02
							{
								OFFSET -0.057552 20.237839 7.676292
								CHANNELS 3 Xrotation Yrotation Zrotation
								JOINT Head
								{
									OFFSET 0.116544 20.109818 8.837181
									CHANNELS 3 Xrotation Yrotation Zrotation
									JOINT L_Ear
									{
										OFFSET 8.536811 16.227478 9.302750
										CHANNELS 3 Xrotation Yrotation Zrotation
										End Site
										{
											OFFSET 6.243855 6.432968 -14.300797
										}
									}
									JOINT R_Ear
									{
										OFFSET -7.281485 17.086838 8.818779
										CHANNELS 3 Xrotation Yrotation Zrotation
										End Site
										{
											OFFSET 4.627826 -7.023407 14.633400
										}
									}
									JOINT Jaw
									{
										OFFSET -0.487413 -4.164917 8.539513
										CHANNELS 3 Xrotation Yrotation Zrotation
										End Site
										{
											OFFSET 0.972280 16.719543 -2.095924
										}
									}
								}
							}
						}
					}
					JOINT R_Scapula
					{
						OFFSET -6.756385 17.541763 7.673988
						CHANNELS 3 Xrotation Yrotation Zrotation
						JOINT R_Shoulder
						{
							OFFSET -4.012971 -35.522552 22.005051
							CHANNELS 3 Xrotation Yrotation Zrotation
							JOINT R_Front_UpperLeg
							{
								OFFSET -3.178898 -27.349777 -18.723969
								CHANNELS 3 Xrotation Yrotation Zrotation
								JOINT R_Front_LowerLeg
								{
									OFFSET 1.576680 -39.718456 2.864098
									CHANNELS 3 Xrotation Yrotation Zrotation
									JOINT R_Front_Ankle
									{
										OFFSET 1.212198 -30.536846 2.201950
										CHANNELS 3 Xrotation Yrotation Zrotation
										JOINT R_Front_Hoof
										{
											OFFSET -0.000008 -9.177134 4.105606
											CHANNELS 3 Xrotation Yrotation Zrotation
											End Site
											{
												OFFSET 0.000017 0.000013 -10.053650
											}
										}
									}
								}
							}
						}
					}
					JOINT L_Scapula
					{
						OFFSET 6.756220 17.541611 7.674042
						CHANNELS 3 Xrotation Yrotation Zrotation
						JOINT L_Shoulder
						{
							OFFSET 2.967469 -35.658783 21.949951
							CHANNELS 3 Xrotation Yrotation Zrotation
							JOINT L_Front_UpperLeg
							{
								OFFSET 1.995463 -26.938629 -19.468475
								CHANNELS 3 Xrotation Yrotation Zrotation
								JOINT L_Front_LowerLeg
								{
									OFFSET -0.864232 -39.609890 -4.305237
									CHANNELS 3 Xrotation Yrotation Zrotation
									JOINT L_Front_Ankle
									{
										OFFSET -0.664383 -30.452950 -3.313950
										CHANNELS 3 Xrotation Yrotation Zrotation
										JOINT L_Front_Hoof
										{
											OFFSET 0.004585 -9.221642 4.004440
											CHANNELS 3 Xrotation Yrotation Zrotation
											End Site
											{
												OFFSET 0.011362 -0.110424 10.052956
											}
										}
									}
								}
							}
						}
					}
				}
			}
		}
		JOINT L_Hip
		{
			OFFSET 14.887411 -7.729401 -12.131313
			CHANNELS 3 Xrotation Yrotation Zrotation
			JOINT L_Back_UpperLeg
			{
				OFFSET 0.000002 -34.478577 8.440952
				CHANNELS 3 Xrotation Yrotation Zrotation
				JOINT L_Back_LowerLeg
				{
					OFFSET -3.196042 -42.364540 -14.576752
					CHANNELS 3 Xrotation Yrotation Zrotation
					JOINT L_Back_Ankle
					{
						OFFSET 1.655677 -33.756046 12.931885
						CHANNELS 3 Xrotation Yrotation Zrotation
						JOINT L_Back_Hoof
						{
							OFFSET 0.582796 -11.035068 3.767300
							CHANNELS 3 Xrotation Yrotation Zrotation
							End Site
							{
								OFFSET 1.784864 0.000003 11.537727
							}
						}
					}
				}
			}
		}
		JOINT R_Hip
		{
			OFFSET -14.887404 -7.729279 -12.131306
			CHANNELS 3 Xrotation Yrotation Zrotation
			JOINT R_Back_UpperLeg
			{
				OFFSET -0.000001 -35.225853 4.378204
				CHANNELS 3 Xrotation Yrotation Zrotation
				JOINT R_Back_LowerLeg
				{
					OFFSET 3.960886 -39.350452 -21.290848
					CHANNELS 3 Xrotation Yrotation Zrotation
					JOINT R_Back_Ankle
					{
						OFFSET -0.902672 -36.023087 3.312683
						CHANNELS 3 Xrotation Yrotation Zrotation
						JOINT R_Back_Hoof
						{
							OFFSET -0.767580 -11.035016 3.734024
							CHANNELS 3 Xrotation Yrotation Zrotation
							End Site
							{
								OFFSET 2.350776 -0.000010 -11.435806
							}
						}
					}
				}
			}
		}
		JOINT Tail_01
		{
			OFFSET 0.000002 9.427826 -23.815632
			CHANNELS 3 Xrotation Yrotation Zrotation
			JOINT Tail_02
			{
				OFFSET 0.000006 -10.096954 -19.648140
				CHANNELS 3 Xrotation Yrotation Zrotation
				JOINT Tail_03
				{
					OFFSET -1.564039 -22.345718 -6.591278
					CHANNELS 3 Xrotation Yrotation Zrotation
					JOINT Tail_04
					{
						OFFSET -1.985838 -23.130371 -0.674477
						CHANNELS 3 Xrotation Yrotation Zrotation
						JOINT Tail_05
						{
							OFFSET -2.096033 -23.247314 1.090141
							CHANNELS 3 Xrotation Yrotation Zrotation
							End Site
							{
								OFFSET 1.212440 -1.202248 -23.304581
							}
						}
					}
				}
			}
		}
	}
}
MOTION
Frames: 5
Frame Time: 0.033333
0.000000 0.000000 0.000000 0.000006 0.000000 -0.000000 0.000015 0.000007 0.000000 0.205053 -0.112604 -0.011863 -0.000028 0.000000 0.000011 -0.177531 0.097623 0.000997 6.440473 5.858646 -2.648901 -3.248993 -19.484511 0.450691 -4.666553 -16.973510 1.592067 -8.022563 -0.503606 1.311207 -24.790192 35.323372 29.364220 -24.875653 4.580084 -14.634980 0.000027 0.000092 -0.000163 -0.020802 0.003419 -0.002380 0.050949 -0.005840 -0.000128 -0.027263 -0.105263 -0.159742 -0.000103 0.000094 -0.000001 -0.003190 0.107593 0.162498 0.000012 -0.000071 0.000022 -0.006494 -0.000803 0.000658 0.013799 0.001088 -0.000094 -0.009724 -0.117792 -0.184440 -0.000001 -0.000000 -0.000002 0.002030 0.117426 0.184110 -0.000021 0.000017 0.000000 0.000000 -0.000001 -0.000002 -0.598729 0.291652 -0.177453 1.367065 -0.025396 -0.233748 -0.766335 -0.267519 0.414558 -0.000010 0.000028 -0.000007 0.000003 0.000000 0.000001 -0.700119 0.243515 -0.374273 1.448919 -0.006206 0.287844 -0.748382 -0.228959 0.089495 0.000000 -0.000086 0.000015 0.918869 0.814212 -0.418578 0.883470 0.163192 -0.762371 -0.017155 0.001029 0.015225 -0.889991 0.117794 0.800577 -0.944672 0.125040 0.849957 
0.000000 0.000000 0.000000 0.000006 0.000000 -0.000000 0.000015 0.000007 0.000000 0.199763 -0.113835 -0.011982 -0.000027 0.000000 0.000011 -0.172950 0.098700 0.001096 6.438813 5.861438 -2.650057 -3.244916 -19.477084 0.449297 -4.664013 -16.974900 1.586500 -8.013952 -0.508440 1.312297 -24.796763 35.447258 29.435940 -24.928459 4.581375 -14.589262 0.000026 0.000093 -0.000163 -0.015658 0.002558 -0.001769 0.038364 -0.004400 -0.000097 -0.019563 -0.106246 -0.161021 -0.000104 0.000094 -0.000001 -0.003475 0.107997 0.163133 0.000016 -0.000076 0.000024 -0.000714 -0.000159 0.000191 0.001383 0.000107 -0.000010 -0.003493 -0.117736 -0.184527 -0.000001 -0.000000 -0.000002 0.002453 0.117709 0.184573 -0.000024 0.000023 -0.000003 0.000000 -0.000001 -0.000002 -0.591309 0.293505 -0.180747 1.350475 -0.025055 -0.230915 -0.757152 -0.269623 0.414987 -0.000011 0.000033 -0.000009 0.000003 0.000000 0.000001 -0.690714 0.245033 -0.374075 1.429124 -0.006169 0.283911 -0.737942 -0.230685 0.093213 -0.000000 -0.000088 0.000015 0.839089 0.743543 -0.382330 0.968882 0.178935 -0.835897 0.158265 -0.009487 -0.140637 -0.786177 0.104051 0.707146 -1.006422 0.133216 0.905562 
0.000000 0.000000 0.000000 0.000006 0.000000 -0.000000 0.000015 0.000007 0.000000 0.193858 -0.115257 -0.012111 -0.000027 0.000000 0.000011 -0.167840 0.099934 0.001215 6.435379 5.862188 -2.650080 -3.240545 -19.468466 0.447678 -4.661284 -16.972253 1.580861 -8.004601 -0.511394 1.312339 -24.809247 35.590702 29.523363 -24.988490 4.577055 -14.539707 0.000026 0.000088 -0.000162 -0.010180 0.001641 -0.001115 0.024987 -0.002868 -0.000065 -0.011382 -0.106953 -0.161861 -0.000104 0.000094 -0.000000 -0.003755 0.108089 0.163295 0.000014 -0.000082 0.000027 0.005357 0.000519 -0.000312 -0.011712 -0.000928 0.000080 0.003096 -0.117308 -0.184032 -0.000001 -0.000000 -0.000002 0.002883 0.117640 0.184485 -0.000023 0.000029 -0.000005 0.000000 -0.000001 -0.000002 -0.582518 0.295092 -0.184035 1.330802 -0.024651 -0.227555 -0.746238 -0.271522 0.414885 -0.000009 0.000038 -0.000010 0.000003 0.000000 0.000001 -0.679678 0.246336 -0.373358 1.405848 -0.006127 0.279286 -0.725712 -0.232229 0.097084 -0.000002 -0.000090 0.000016 0.736070 0.652571 -0.335512 1.027412 0.189720 -0.886259 0.329305 -0.019734 -0.292558 -0.660576 0.087427 0.594131 -1.040276 0.137698 0.936034 
0.000000 0.000000 0.000000 0.000006 0.000000 -0.000000 0.000015 0.000007 0.000000 0.187364 -0.116840 -0.012272 -0.000027 0.000000 0.000011 -0.162211 0.101307 0.001343 6.430332 5.861073 -2.649069 -3.235966 -19.458579 0.445929 -4.658489 -16.965845 1.575254 -7.994690 -0.512770 1.311456 -24.829459 35.755996 29.627694 -25.054903 4.567776 -14.486811 0.000027 0.000093 -0.000163 -0.004406 0.000675 -0.000431 0.010862 -0.001250 -0.000030 -0.002748 -0.107384 -0.162289 -0.000104 0.000094 -0.000001 -0.004039 0.107871 0.162985 0.000014 -0.000087 0.000029 0.011754 0.001233 -0.000823 -0.025425 -0.002012 0.000173 0.009998 -0.116527 -0.182987 -0.000002 -0.000000 -0.000002 0.003309 0.117232 0.183872 -0.000024 0.000036 -0.000008 0.000000 -0.000001 -0.000002 -0.572446 0.296425 -0.187345 1.308152 -0.024186 -0.223687 -0.733657 -0.273221 0.414264 -0.000011 0.000042 -0.000012 0.000003 0.000000 0.000001 -0.667031 0.247413 -0.372138 1.379259 -0.006074 0.274002 -0.711740 -0.233595 0.101102 0.000001 -0.000090 0.000016 0.612708 0.543696 -0.279434 1.057409 0.195247 -0.912080 0.491229 -0.029433 -0.436323 -0.516681 0.068380 0.464674 -1.045288 0.138361 0.940546 
0.000000 0.000000 0.000000 0.000006 0.000000 -0.000000 0.000015 0.000007 0.000000 0.180297 -0.118581 -0.012440 -0.000027 0.000000 0.000011 -0.156102 0.102821 0.001479 6.423879 5.858269 -2.647135 -3.231254 -19.447321 0.444119 -4.655741 -16.955912 1.569761 -7.984285 -0.512849 1.309785 -24.859182 35.945359 29.750129 -25.126840 4.554106 -14.431076 0.000025 0.000089 -0.000164 0.001689 -0.000345 0.000291 -0.003981 0.000449 0.000006 0.006311 -0.107562 -0.162287 -0.000103 0.000094 -0.000000 -0.004334 0.107364 0.162246 0.000014 -0.000093 0.000032 0.018413 0.001975 -0.001359 -0.039746 -0.003143 0.000270 0.017222 -0.115398 -0.181416 -0.000002 -0.000000 -0.000002 0.003765 0.116494 0.182739 -0.000023 0.000042 -0.000011 0.000000 -0.000001 -0.000002 -0.561089 0.297514 -0.190644 1.282635 -0.023664 -0.219329 -0.719487 -0.274722 0.413158 -0.000013 0.000047 -0.000014 0.000003 0.000000 0.000001 -0.652890 0.248290 -0.370438 1.349518 -0.006013 0.268093 -0.696130 -0.234789 0.105261 -0.000002 -0.000091 0.000016 0.472395 0.419233 -0.215531 1.058070 0.195363 -0.912641 0.639543 -0.038315 -0.567975 -0.358475 0.047440 0.322369 -1.021323 0.135188 0.918969 
